<svg id="Layer_1" data-name="Layer 1" xmlns="http://www.w3.org/2000/svg" viewBox="0 0 267.3 267.3">
    <defs>
        <style>.cls-1{fill:#e52a12;}</style>
    </defs>
    <title>Alfame_tunnus</title>
    <path class="cls-1"
          d="M100.13,244.93l22.26,22.26s18.71,18.7,37.41,0l30.38-30.38c-8.64-8.2-15.63-23.46-18.4-49.8h-.95c-18.5,38-48.86,57.9-70.7,57.92M110.54,50.3c-28.95,0-47.47,38.45-47.47,81.17.48,49.37,27.54,82.13,50.32,82.13,29,0,55.07-38.46,55.07-76V124.83c0-38-25.16-74.53-57.92-74.53M40.15,98.76,15.76,123.14s-18.71,18.71,0,37.42l23.08,23.08a153.32,153.32,0,0,1-4.94-39.16q0-25.27,6.25-45.72M184.29,41,159.8,16.51s-18.7-18.7-37.41,0L112,26.88a45.5,45.5,0,0,1,12.76-2.22c18,0,38.92,16.14,50.31,49.37h1.43c.88-6.43,4.53-20.88,7.76-33m82.14,82.14-55.6-55.6c-3.44,21.62-6.51,49.18-6.77,75.8,0,37,6.8,56.71,15.17,64.43l47.2-47.21s18.71-18.71,0-37.42"
          transform="translate(-7.45 -8.2)"/>
</svg>